<mxfile host="app.diagrams.net" modified="2022-04-02T06:52:13.786Z" agent="5.0 (Macintosh; Intel Mac OS X 10_15_7) AppleWebKit/537.36 (KHTML, like Gecko) Chrome/99.0.4844.83 Safari/537.36" etag="kjv0PJRqN2SaohUWeDLB" version="17.2.4" type="github">
  <diagram id="PA5HQk3RtvyoMGpbacmi" name="Page-1">
    <mxGraphModel dx="1398" dy="699" grid="1" gridSize="10" guides="1" tooltips="1" connect="1" arrows="1" fold="1" page="1" pageScale="1" pageWidth="827" pageHeight="1169" math="0" shadow="0">
      <root>
        <mxCell id="0" />
        <mxCell id="1" parent="0" />
        <mxCell id="yBssoshlwt1bd_vUXHJR-20" value="" style="rounded=0;whiteSpace=wrap;html=1;" vertex="1" parent="1">
          <mxGeometry x="29" y="390" width="301" height="210" as="geometry" />
        </mxCell>
        <mxCell id="yBssoshlwt1bd_vUXHJR-28" value="" style="rounded=0;whiteSpace=wrap;html=1;" vertex="1" parent="1">
          <mxGeometry x="95" y="448" width="172" height="112" as="geometry" />
        </mxCell>
        <mxCell id="yBssoshlwt1bd_vUXHJR-21" style="edgeStyle=orthogonalEdgeStyle;rounded=0;orthogonalLoop=1;jettySize=auto;html=1;" edge="1" parent="1" source="yBssoshlwt1bd_vUXHJR-1" target="yBssoshlwt1bd_vUXHJR-20">
          <mxGeometry relative="1" as="geometry" />
        </mxCell>
        <mxCell id="yBssoshlwt1bd_vUXHJR-1" value="" style="rounded=0;whiteSpace=wrap;html=1;" vertex="1" parent="1">
          <mxGeometry x="29" y="50" width="300" height="290" as="geometry" />
        </mxCell>
        <mxCell id="yBssoshlwt1bd_vUXHJR-2" value="Gemini" style="text;html=1;strokeColor=none;fillColor=none;align=center;verticalAlign=middle;whiteSpace=wrap;rounded=0;" vertex="1" parent="1">
          <mxGeometry x="127.75" y="20" width="60" height="30" as="geometry" />
        </mxCell>
        <mxCell id="yBssoshlwt1bd_vUXHJR-7" value="" style="edgeStyle=orthogonalEdgeStyle;rounded=0;orthogonalLoop=1;jettySize=auto;html=1;" edge="1" parent="1" source="yBssoshlwt1bd_vUXHJR-4" target="yBssoshlwt1bd_vUXHJR-6">
          <mxGeometry relative="1" as="geometry" />
        </mxCell>
        <mxCell id="yBssoshlwt1bd_vUXHJR-4" value="读取文件" style="rounded=1;whiteSpace=wrap;html=1;" vertex="1" parent="1">
          <mxGeometry x="114.5" y="60" width="82.5" height="30" as="geometry" />
        </mxCell>
        <mxCell id="yBssoshlwt1bd_vUXHJR-5" value="最大id" style="shape=parallelogram;perimeter=parallelogramPerimeter;whiteSpace=wrap;html=1;fixedSize=1;" vertex="1" parent="1">
          <mxGeometry x="90.75" y="120" width="130" height="30" as="geometry" />
        </mxCell>
        <mxCell id="yBssoshlwt1bd_vUXHJR-9" value="" style="edgeStyle=orthogonalEdgeStyle;rounded=0;orthogonalLoop=1;jettySize=auto;html=1;" edge="1" parent="1" source="yBssoshlwt1bd_vUXHJR-6">
          <mxGeometry relative="1" as="geometry">
            <mxPoint x="155.969696969697" y="232" as="targetPoint" />
          </mxGeometry>
        </mxCell>
        <mxCell id="yBssoshlwt1bd_vUXHJR-6" value="数据shuffle" style="shape=parallelogram;perimeter=parallelogramPerimeter;whiteSpace=wrap;html=1;fixedSize=1;" vertex="1" parent="1">
          <mxGeometry x="84.75" y="176" width="142.25" height="30" as="geometry" />
        </mxCell>
        <mxCell id="yBssoshlwt1bd_vUXHJR-17" value="" style="edgeStyle=orthogonalEdgeStyle;rounded=0;orthogonalLoop=1;jettySize=auto;html=1;" edge="1" parent="1" source="yBssoshlwt1bd_vUXHJR-8" target="yBssoshlwt1bd_vUXHJR-16">
          <mxGeometry relative="1" as="geometry" />
        </mxCell>
        <mxCell id="yBssoshlwt1bd_vUXHJR-8" value="数据&lt;br&gt;partition" style="shape=parallelogram;perimeter=parallelogramPerimeter;whiteSpace=wrap;html=1;fixedSize=1;" vertex="1" parent="1">
          <mxGeometry x="78" y="232" width="150" height="30" as="geometry" />
        </mxCell>
        <mxCell id="yBssoshlwt1bd_vUXHJR-10" value="由参数传入获取&lt;br&gt;最大点个数" style="text;html=1;strokeColor=none;fillColor=none;align=center;verticalAlign=middle;whiteSpace=wrap;rounded=0;" vertex="1" parent="1">
          <mxGeometry x="220" y="120" width="110" height="30" as="geometry" />
        </mxCell>
        <mxCell id="yBssoshlwt1bd_vUXHJR-11" value="获取点的出度、入度" style="text;html=1;strokeColor=none;fillColor=none;align=center;verticalAlign=middle;whiteSpace=wrap;rounded=0;" vertex="1" parent="1">
          <mxGeometry x="254" y="176" width="76" height="30" as="geometry" />
        </mxCell>
        <mxCell id="yBssoshlwt1bd_vUXHJR-12" value="依据出度、入度进行partiton" style="text;html=1;strokeColor=none;fillColor=none;align=center;verticalAlign=middle;whiteSpace=wrap;rounded=0;" vertex="1" parent="1">
          <mxGeometry x="248" y="232" width="82" height="30" as="geometry" />
        </mxCell>
        <mxCell id="yBssoshlwt1bd_vUXHJR-14" style="edgeStyle=orthogonalEdgeStyle;rounded=0;orthogonalLoop=1;jettySize=auto;html=1;shape=arrow;" edge="1" parent="1" source="yBssoshlwt1bd_vUXHJR-13" target="yBssoshlwt1bd_vUXHJR-10">
          <mxGeometry relative="1" as="geometry" />
        </mxCell>
        <mxCell id="yBssoshlwt1bd_vUXHJR-13" value="ReJoyGraph动态获取" style="text;html=1;strokeColor=none;fillColor=none;align=center;verticalAlign=middle;whiteSpace=wrap;rounded=0;" vertex="1" parent="1">
          <mxGeometry x="470" y="120" width="130" height="30" as="geometry" />
        </mxCell>
        <mxCell id="yBssoshlwt1bd_vUXHJR-15" value="Tugraph内部是有排序" style="text;html=1;strokeColor=none;fillColor=none;align=center;verticalAlign=middle;whiteSpace=wrap;rounded=0;" vertex="1" parent="1">
          <mxGeometry x="247" y="291" width="74" height="30" as="geometry" />
        </mxCell>
        <mxCell id="yBssoshlwt1bd_vUXHJR-16" value="构图" style="shape=parallelogram;perimeter=parallelogramPerimeter;whiteSpace=wrap;html=1;fixedSize=1;" vertex="1" parent="1">
          <mxGeometry x="78" y="294" width="150" height="30" as="geometry" />
        </mxCell>
        <mxCell id="yBssoshlwt1bd_vUXHJR-18" style="edgeStyle=orthogonalEdgeStyle;rounded=0;orthogonalLoop=1;jettySize=auto;html=1;shape=arrow;" edge="1" source="yBssoshlwt1bd_vUXHJR-19" parent="1">
          <mxGeometry relative="1" as="geometry">
            <mxPoint x="329" y="306" as="targetPoint" />
          </mxGeometry>
        </mxCell>
        <mxCell id="yBssoshlwt1bd_vUXHJR-19" value="ReJoyGraph未排序" style="text;html=1;strokeColor=none;fillColor=none;align=center;verticalAlign=middle;whiteSpace=wrap;rounded=0;" vertex="1" parent="1">
          <mxGeometry x="469" y="291" width="130" height="30" as="geometry" />
        </mxCell>
        <mxCell id="yBssoshlwt1bd_vUXHJR-22" value="图压缩" style="text;html=1;strokeColor=none;fillColor=none;align=center;verticalAlign=middle;whiteSpace=wrap;rounded=0;" vertex="1" parent="1">
          <mxGeometry x="100" y="350" width="60" height="30" as="geometry" />
        </mxCell>
        <mxCell id="yBssoshlwt1bd_vUXHJR-26" value="" style="edgeStyle=orthogonalEdgeStyle;rounded=0;orthogonalLoop=1;jettySize=auto;html=1;" edge="1" parent="1" source="yBssoshlwt1bd_vUXHJR-23" target="yBssoshlwt1bd_vUXHJR-25">
          <mxGeometry relative="1" as="geometry" />
        </mxCell>
        <mxCell id="yBssoshlwt1bd_vUXHJR-23" value="排序" style="shape=parallelogram;perimeter=parallelogramPerimeter;whiteSpace=wrap;html=1;fixedSize=1;" vertex="1" parent="1">
          <mxGeometry x="119" y="400" width="120" height="40" as="geometry" />
        </mxCell>
        <mxCell id="yBssoshlwt1bd_vUXHJR-24" value="预编码" style="shape=parallelogram;perimeter=parallelogramPerimeter;whiteSpace=wrap;html=1;fixedSize=1;" vertex="1" parent="1">
          <mxGeometry x="112" y="454" width="120" height="40" as="geometry" />
        </mxCell>
        <mxCell id="yBssoshlwt1bd_vUXHJR-25" value="压缩存储" style="shape=parallelogram;perimeter=parallelogramPerimeter;whiteSpace=wrap;html=1;fixedSize=1;" vertex="1" parent="1">
          <mxGeometry x="113.75" y="508" width="120" height="40" as="geometry" />
        </mxCell>
        <mxCell id="yBssoshlwt1bd_vUXHJR-27" value="预编码&lt;br&gt;过程" style="text;html=1;strokeColor=none;fillColor=none;align=center;verticalAlign=middle;whiteSpace=wrap;rounded=0;" vertex="1" parent="1">
          <mxGeometry x="269" y="459" width="60" height="30" as="geometry" />
        </mxCell>
      </root>
    </mxGraphModel>
  </diagram>
</mxfile>
